<?xml version="1.0" encoding="UTF-8"?>
<svg id="Layer_2" data-name="Layer 2" xmlns="http://www.w3.org/2000/svg" xmlns:xlink="http://www.w3.org/1999/xlink" viewBox="0 0 183.43 206.68">
  <defs>
    <style>
      .cls-1 {
        clip-path: url(#clippath);
      }

      .cls-2 {
        fill: none;
      }

      .cls-2, .cls-3, .cls-4, .cls-5, .cls-6 {
        stroke-width: 0px;
      }

      .cls-3 {
        fill: #f2f1c9;
      }

      .cls-4 {
        fill: #34544e;
      }

      .cls-5 {
        fill: #53796d;
      }

      .cls-6 {
        fill: #1c2b2b;
      }
    </style>
    <clipPath id="clippath">
      <rect class="cls-2" x="0" y="0" width="183.43" height="206.68" rx="86.75" ry="86.75"/>
    </clipPath>
  </defs>
  <g id="Layer_1-2" data-name="Layer 1">
    <g>
      <rect class="cls-3" x="0" y="0" width="183.43" height="206.68" rx="86.75" ry="86.75"/>
      <path class="cls-4" d="m91.37,122.8c3.85-4.87,7.46-9.37,11-13.93,3.96-5.1,7.86-10.24,11.8-15.36,2.36-3.06,5.48-3.42,7.77-.62,4.89,5.97,9.62,12.07,14.39,18.13.34.43.51,1,.28.53-15.52,12.57-30.76,24.9-45.32,36.69-14.68-11.73-30.03-23.98-45.55-36.38,3.58-4.52,7.77-9.81,11.97-15.09,6.2-7.8,7.11-7.81,13.3.1,6.02,7.69,11.99,15.43,17.99,23.14.6.77,1.27,1.5,2.37,2.79Z"/>
      <path class="cls-4" d="m10.13,91.2c6.38-8.05,12.58-16.03,18.98-23.84,1.92-2.34,4.66-2.57,6.68-.07,5.66,7.02,11.12,14.2,16.81,21.51-5.19,6.2-10.28,12.28-15.44,18.43-8.99-5.33-17.86-10.59-27.03-16.03Z"/>
      <path class="cls-4" d="m172.39,90.89c-9.06,5.43-17.92,10.74-27.04,16.2-4.85-5.92-9.8-11.96-14.95-18.25,4.4-5.73,8.71-11.35,13.02-16.97.25-.33.54-.63.79-.96,5.5-7.14,6.84-7.09,12.48.15,5.18,6.64,10.46,13.21,15.7,19.82Z"/>
      <path class="cls-4" d="m77.24,186.83c4.28-6.38,8.56-12.76,12.81-19.15.35-.53.52-1.18.78-1.77.29,0,.59,0,.88,0,3.32,4.82,6.7,9.59,9.94,14.46,1.36,2.04,2.43,4.27,3.63,6.42-2.68,3.24-5.38,6.47-8.03,9.73-1.92,2.36-3.78,4.77-5.89,7.44-4.82-5.84-9.47-11.48-14.13-17.12Z"/>
      <path class="cls-6" d="m82.9,55.81h17.08v31.1h-17.08v-31.1Z"/>
      <path class="cls-6" d="m100,34.78v14.18h-17.11v-14.18h17.11Z"/>
      <path class="cls-6" d="m100.07,27.67h-17.33c.32-4.84-1.47-10.14,3.66-13.76,2.91-2.05,6.03-2.37,9.1-.53,5.62,3.36,4.85,8.83,4.56,14.29Z"/>
      <path class="cls-6" d="m91.56,110.68c-2.4-6.01-4.5-11.28-6.71-16.83h13.05c-2.08,5.53-4.09,10.86-6.34,16.83Z"/>
    </g>
    <g class="cls-1">
      <path class="cls-6" d="m184.53,134.06v.18c-.6,13.09-5.5,24.83-11.87,35.94-6.53,11.4-15.52,20.76-26.1,28.58-11.41,8.43-23.92,14.55-37.89,17.24-24.68,4.75-47.41-.17-68.27-14.21-14.74-9.92-25.91-22.88-33.65-38.77-3.13-6.42-6.04-12.99-6.72-20.26v-2.3s0-.05-.01-.08c-.01-.08-.01-.17-.01-.26,0-.16.01-.32.02-.48.04-.47.06-.94-.25-1.38v-6c1.08-.85,2.06-.18,3.03.22,13.64,5.59,26.15,13.15,38.09,21.72,13.26,9.52,25.61,20.09,36.69,32.1.03.02.05.05.07.07.11.12.22.24.33.36,4.62,4.97,8.7,10.41,13.37,15.94,4.16-5.93,9.04-10.82,13.51-16.07.07-.07.13-.15.19-.22l.03-.03c5.13-4.74,9.87-9.88,15.08-14.54,6.03-5.38,12.19-10.57,18.74-15.27,10.43-7.47,21.43-14.02,32.77-19.99,3.24-1.7,6.63-3.1,10.06-4.4.84-.32,1.74-.75,2.53-.02.01.02.03.03.05.05.05.05.1.11.15.17.09.56.05,1.13.06,1.71Z"/>
      <path class="cls-5" d="m187.31,132.3c-7.2,3.23-14.66,6.03-21.54,9.81-8.86,4.87-17.73,9.94-25.72,16-10.76,8.17-20.68,17.38-30.97,26.12-1.06.9-2.22,1.71-3.34,2.55-.91-.27-1.27-1.05-1.72-1.76-3.55-5.58-7.23-11.08-11.48-16.2-.71-.86-1.38-1.73-.83-2.93,9.22-8.96,17.84-18.61,27.78-26.74,19.95-16.33,42.27-29.31,66.3-40.6.72,5.28,1.4,10.24,2.08,15.19v16c-.65.75.16,1.81-.57,2.54Z"/>
      <path class="cls-5" d="m77.24,186.83c-10.01-8.99-19.64-18.45-30.12-26.85-14.36-11.51-30-21.15-47.34-27.72,0-11,0-22,0-33,9.39,4.97,18.98,9.59,28.11,14.98,18.94,11.17,36.8,23.88,52.35,39.55,3.77,3.8,7.08,8.07,10.59,12.12.59,1.05.15,1.92-.51,2.74-4.22,5.18-7.71,10.85-11.15,16.55-.44.72-.72,1.77-1.94,1.64Z"/>
    </g>
  </g>
</svg>